PathFileType	3	(X/Y/Z)	D:\Jess\Healthy\Labelled\HA18\20250730\SRRun01.trc
DataRate	CameraRate	NumFrames	NumMarkers	Units	OrigDataRate	OrigDataStartFrame	OrigNumFrames
250.0	250.0	5	33	mm	250.0	36875	2501
Frame#	Time	C7			T10			CLAV			LSHO			RSHO			LASIS			RASIS			LPSIS			RPSIS			LILCR			RILCR			LGTR			LTHI			LLTHI			LLEP			LPSH			LLSH			LDSH			LLMAL			LTOE			L5TH			LHEE			RGTR			RTHI			RLTHI			RLEP			RPSH			RLSH			RDSH			RLMAL			RTOE			R5TH			RHEE			
		X1	Y1	Z1	X2	Y2	Z2	X3	Y3	Z3	X4	Y4	Z4	X5	Y5	Z5	X6	Y6	Z6	X7	Y7	Z7	X8	Y8	Z8	X9	Y9	Z9	X10	Y10	Z10	X11	Y11	Z11	X12	Y12	Z12	X13	Y13	Z13	X14	Y14	Z14	X15	Y15	Z15	X16	Y16	Z16	X17	Y17	Z17	X18	Y18	Z18	X19	Y19	Z19	X20	Y20	Z20	X21	Y21	Z21	X22	Y22	Z22	X23	Y23	Z23	X24	Y24	Z24	X25	Y25	Z25	X26	Y26	Z26	X27	Y27	Z27	X28	Y28	Z28	X29	Y29	Z29	X30	Y30	Z30	X31	Y31	Z31	X32	Y32	Z32	X33	Y33	Z33	

1876	147.496	1056.909765580744	1404.750232649935	-270.6168453699575	965.7723821224562	1163.31760947364	-291.325981562626	1169.233687458205	1278.904419899748	-254.9932571946404	1142.292525705073	1354.615926791148	-417.9697355511259	1103.419253056606	1345.283674270214	-110.5974911086071	1132.334844445675	893.9556792738747	-384.4406890333721	1107.747568189468	909.4223238687418	-162.5652774152417	925.5795568069597	944.2739213566149	-319.8123792764808	918.1609303079186	941.2428512388218	-276.9611965380163	1075.067229423293	964.0028764051967	-440.5567908999885	1043.065101642201	969.9056494901592	-129.8976215696375	1063.178336092047	802.0415663898946	-468.3577072920036	1205.198481659779	670.3759826829053	-383.6913700056687	1123.522797798972	552.9427173961362	-445.3570727411746	1132.660914780651	451.7194274876661	-433.0160961445052	1109.329807103434	367.7445817375238	-398.0329526516926	941.5937553385447	387.8547220262626	-441.9532104211355	896.690515775464	288.7195628154771	-401.8926080252805	783.6089158648837	310.9309731008413	-416.5206758529314	799.2763383084329	163.6502285656682	-448.6270127005839	762.2797782875446	185.1877341413748	-478.3075177508047	740.0034972623777	346.6532525126042	-352.109636875026	1041.915301963511	821.3933668341276	-91.9683401281153	1197.830736570108	690.0061206139651	-168.1909539437845	1131.402758301502	564.8166444555949	-144.8725239523135	1144.64222250543	437.5713159033875	-178.2543931981795	1169.673828002749	372.9648104270751	-232.7693505053269	1051.195900729131	270.2197393040764	-173.510520206915	1074.428038301522	166.4677613645561	-248.4028500603717	1005.344552258922	109.3993641930337	-215.4816967010154	1123.494216041567	62.47517578664883	-234.6260123973933	1095.025289971747	40.20616235071068	-187.2283879179533	911.4351290886768	87.73451521940217	-261.2164926169801	
1877	147.5	1056.992509542715	1404.65476678348	-269.9726065207009	965.1608204659775	1163.44161269579	-290.3816316427074	1169.17631551156	1278.277312147146	-255.6410040979688	1140.724619902058	1354.318208639172	-418.3127395053348	1105.362221949032	1344.639259695952	-110.7228945618386	1131.305263475899	893.3833567742616	-384.8820608120561	1107.374045982699	909.019668958385	-162.5021665600542	924.9184200744755	944.1017836983174	-320.6204358864657	917.3099647788677	941.0878563430803	-278.0554206203254	1072.930132892968	963.28442013421	-440.3327210409443	1040.871573205541	969.7422305081743	-130.4699098354507	1061.492725259493	801.8227429198911	-468.5654474941635	1207.470099544823	672.8126364119912	-384.638671112941	1127.964092757571	554.2374541140809	-445.8355638097977	1139.507898402076	453.1359751328644	-433.2265028057119	1117.250963338712	369.0261621480786	-398.0225015440325	949.4977953022174	387.0953410050221	-441.9205789005496	905.8368345916797	287.1309278697675	-402.1764308234042	792.3391034688285	307.4260478455113	-416.7151813523349	811.8745077682025	160.8012725218727	-448.9629496496114	774.5735060781901	181.3826762246401	-478.9065468062478	747.2901457530743	341.9920183755276	-352.5932492419821	1040.585609048712	821.625376404623	-92.04294699923611	1194.790782026327	687.8163269643508	-168.1641813239777	1126.708662784786	563.2127879649947	-145.2172779838709	1137.831616326897	435.589460344312	-178.298346623495	1162.665456689834	370.5180237859341	-232.524889889959	1042.578604226982	269.2950708804213	-173.5772916510375	1064.314651820542	165.7792530682722	-248.3285681837859	994.3023988101534	109.7153571417132	-215.3740751866424	1112.081278588334	62.17585114902342	-234.4714491745052	1083.468470065992	40.12368161651089	-187.0961434086128	900.1162738832895	88.26326262152482	-261.1840546972705	
1878	147.504	1057.048317670026	1404.716722805716	-269.3413979986121	964.6076974874449	1163.734792058897	-289.44758905072	1169.100372513451	1277.902739635937	-256.3169314577235	1139.074671586082	1354.278890531215	-418.6695024092283	1107.367117416717	1344.221687805893	-110.9152146184482	1130.30584228101	893.2481403357655	-385.361312239357	1107.091497639232	908.9568987971613	-162.5827847957707	924.3760227364997	944.3095899541893	-321.3718069188639	916.5945104522705	941.2667777927187	-279.0870356274634	1070.666494690299	963.1323672626154	-440.1161457152405	1038.63174818159	970.2464756176114	-131.0539919511334	1059.687587923943	802.0377072186203	-468.7492447488587	1209.658036252481	675.4284480860662	-385.5417234919161	1132.37015024507	555.7875461746672	-446.266855724836	1146.273308659835	454.8064775089397	-433.3575850907698	1125.119465888023	370.5355547162347	-397.9205360032146	957.3878423409946	386.263753048545	-441.8928131810124	915.105845824155	285.4417472717586	-402.4022288589883	801.1634440608558	303.6073077134773	-416.9154401348887	824.7429766388454	157.7328247181043	-449.171398776907	787.1052917514376	177.27142733279	-479.3687539040433	754.7027602521026	336.9798471476603	-353.0958615398717	1039.333659624404	822.098507693487	-92.18191650795035	1191.61172984712	685.6901094420006	-168.4335106203832	1121.812587834932	561.733076140064	-145.6384168734284	1130.713730460518	433.6549690227694	-178.4128459432528	1155.331762407388	368.1518497932059	-232.3974264988625	1033.765890451976	268.3356576123705	-173.7119157947263	1054.068936862106	165.1402068959865	-248.2945516664587	983.2196091569549	110.0462294444062	-215.2839136066	1100.631746707273	61.87225602689599	-234.3490415852598	1071.881082512961	40.0359679310376	-186.9949722366508	888.7727420779091	88.83966005306904	-261.1615706868695	
1879	147.508	1057.075530342417	1404.934020925291	-268.727575749521	964.1160523576079	1164.183829983165	-288.5183111505952	1169.011667537047	1277.787219370328	-257.0234281067344	1137.345787418055	1354.499965031472	-419.0506762716541	1109.417631630254	1344.041925416731	-111.1706761818234	1129.337329664143	893.5556210196573	-385.8723167485808	1106.890505126833	909.2244806386232	-162.7981305548073	923.9323160871828	944.8583310147669	-322.0307237569168	916.0053139153475	941.7451520125592	-280.0170236591173	1068.304140843468	963.5307482066039	-439.9139999828667	1036.392969011389	971.3786876866295	-131.6377117326672	1057.795136529743	802.6705067828925	-468.9088136963168	1211.754648431462	678.211728168593	-386.4051093839926	1136.719691528823	557.5900437165153	-446.6567696263548	1152.925001680629	456.7319321346346	-433.4159441809741	1132.914019286194	372.2724536152224	-397.7398349810583	965.2440445841343	385.3594721722851	-441.8677668667707	924.4889900789527	283.6556509814668	-402.5680596148833	810.0872910223775	299.4818662726381	-417.111980788545	837.8786878672083	154.4683513673228	-449.2622816676413	799.8791308873091	172.8817340812121	-479.6996869194888	762.2535345293438	331.6116371684746	-353.5999227088225	1038.165591790165	822.7804798202694	-92.38558564267505	1188.306156732074	683.6252766749157	-168.9764706930381	1116.740501138683	560.3937879437037	-146.1282883438405	1123.343081563161	431.8038191930703	-178.6057382284702	1147.702980360956	365.9071101698698	-232.4057752533935	1024.79251649627	267.3804563802763	-173.9178900686836	1043.714890370633	164.5692174220059	-248.3087213305896	972.1142128802177	110.410335838956	-215.2173389414027	1089.158432654195	61.56794574220961	-234.2660297503443	1060.274079611996	39.95330367464273	-186.9286356925833	877.4214339542217	89.48617579857343	-261.1501283653812	
1880	147.512	1057.073790227908	1405.30511816872	-268.1356177834897	963.6879094459327	1164.777242790015	-287.5881680538154	1168.91673537095	1277.935186671739	-257.7626257864186	1135.543164380387	1354.980476853947	-419.4649023163011	1111.497416527448	1344.109116791597	-111.4859982914396	1128.400245969662	894.3029543303697	-386.4093915535026	1106.761730638262	909.8073496636263	-163.1361595719059	923.5659347617942	945.7062831267592	-322.5637256795536	915.5313601723667	942.4881376574355	-280.8098159345972	1065.876303394568	964.4522335575352	-439.7330472474937	1034.206893217234	973.0833048647697	-132.2090310568545	1055.849991644779	803.7006945521358	-469.0460005863985	1213.752114396338	681.1543530161714	-387.2332975718087	1140.992606258633	559.6413679854633	-447.0105206585625	1159.431355698698	458.9124778424302	-433.4073368305267	1140.614185620646	374.2352651096901	-397.4929243122114	973.0482387154163	384.381815087943	-441.8424112769121	933.979270284715	281.7773860003372	-402.6717734742339	819.1189157611003	295.0578783030077	-417.2953276303926	851.2807718112504	151.0333627064324	-449.2444813069505	812.9022599223757	168.2431168400904	-479.9052016763454	769.9563899988649	325.8840833618798	-354.0892711424145	1037.087113174327	823.6384405104454	-92.65321617919808	1184.887967070835	681.6222677273821	-169.7674896368013	1111.520716361013	559.2109545820416	-146.6795550524386	1115.770067943395	430.072714042374	-178.8815472696035	1139.809755341191	363.8233744275948	-232.5618539310858	1015.690511448327	266.4711506596148	-174.1947345929808	1033.275686519835	164.0853787689039	-248.3759643664409	961.0036411750468	110.826181541165	-215.1781775582495	1077.67310327086	61.2680669273991	-234.2275548373491	1048.657580801201	39.88579157195586	-186.8998380397272	866.0791777738968	90.22554978222696	-261.1490590826875	
